<svg xmlns="http://www.w3.org/2000/svg" viewBox="0 0 1600 1100" width="1600" height="1100" role="img" aria-label="Massa sendo dividida na bancada">
  <defs>
    <linearGradient id="parede1" x1="0.1" y1="0" x2="0.8" y2="1">
      <stop offset="0" stop-color="#cbbf9e"/>
      <stop offset="1" stop-color="#4a3a2c"/>
    </linearGradient>
    <radialGradient id="massa1" cx="0.35" cy="0.3" r="0.8">
      <stop offset="0" stop-color="#c08a63"/>
      <stop offset="1" stop-color="#4a3a2c"/>
    </radialGradient>
    <filter id="poeira1">
      <feTurbulence type="fractalNoise" baseFrequency="0.85" numOctaves="3" result="n"/>
      <feColorMatrix in="n" type="saturate" values="0"/>
      <feComponentTransfer><feFuncA type="linear" slope="0.22"/></feComponentTransfer>
      <feComposite operator="in" in2="SourceGraphic"/>
    </filter>
  </defs>
  <rect width="1600" height="1100" fill="url(#parede1)"/>
  
  <rect y="640" width="1600" height="460" fill="#27231f" opacity="0.28"/>
  <rect y="632" width="1600" height="16" fill="#cbbf9e" opacity="0.35"/>
  <g opacity="0.16" fill="#f1ebd5">
    <circle cx="20" cy="660" r="2"/><circle cx="157" cy="721" r="3"/><circle cx="294" cy="782" r="4"/><circle cx="431" cy="843" r="2"/><circle cx="568" cy="904" r="3"/><circle cx="705" cy="965" r="4"/><circle cx="842" cy="1026" r="2"/><circle cx="979" cy="687" r="3"/><circle cx="1116" cy="748" r="4"/><circle cx="1253" cy="809" r="2"/><circle cx="1390" cy="870" r="3"/><circle cx="1527" cy="931" r="4"/><circle cx="104" cy="992" r="2"/><circle cx="241" cy="1053" r="3"/><circle cx="378" cy="714" r="4"/><circle cx="515" cy="775" r="2"/><circle cx="652" cy="836" r="3"/><circle cx="789" cy="897" r="4"/><circle cx="926" cy="958" r="2"/><circle cx="1063" cy="1019" r="3"/><circle cx="1200" cy="680" r="4"/><circle cx="1337" cy="741" r="2"/><circle cx="1474" cy="802" r="3"/><circle cx="51" cy="863" r="4"/><circle cx="188" cy="924" r="2"/><circle cx="325" cy="985" r="3"/><circle cx="462" cy="1046" r="4"/><circle cx="599" cy="707" r="2"/><circle cx="736" cy="768" r="3"/><circle cx="873" cy="829" r="4"/><circle cx="1010" cy="890" r="2"/><circle cx="1147" cy="951" r="3"/><circle cx="1284" cy="1012" r="4"/><circle cx="1421" cy="673" r="2"/><circle cx="1558" cy="734" r="3"/><circle cx="135" cy="795" r="4"/><circle cx="272" cy="856" r="2"/><circle cx="409" cy="917" r="3"/><circle cx="546" cy="978" r="4"/><circle cx="683" cy="1039" r="2"/><circle cx="820" cy="700" r="3"/><circle cx="957" cy="761" r="4"/><circle cx="1094" cy="822" r="2"/><circle cx="1231" cy="883" r="3"/><circle cx="1368" cy="944" r="4"/><circle cx="1505" cy="1005" r="2"/><circle cx="82" cy="666" r="3"/><circle cx="219" cy="727" r="4"/><circle cx="356" cy="788" r="2"/><circle cx="493" cy="849" r="3"/><circle cx="630" cy="910" r="4"/><circle cx="767" cy="971" r="2"/><circle cx="904" cy="1032" r="3"/><circle cx="1041" cy="693" r="4"/><circle cx="1178" cy="754" r="2"/><circle cx="1315" cy="815" r="3"/><circle cx="1452" cy="876" r="4"/><circle cx="29" cy="937" r="2"/><circle cx="166" cy="998" r="3"/><circle cx="303" cy="1059" r="4"/><circle cx="440" cy="720" r="2"/><circle cx="577" cy="781" r="3"/><circle cx="714" cy="842" r="4"/><circle cx="851" cy="903" r="2"/><circle cx="988" cy="964" r="3"/><circle cx="1125" cy="1025" r="4"/><circle cx="1262" cy="686" r="2"/><circle cx="1399" cy="747" r="3"/><circle cx="1536" cy="808" r="4"/><circle cx="113" cy="869" r="2"/><circle cx="250" cy="930" r="3"/><circle cx="387" cy="991" r="4"/><circle cx="524" cy="1052" r="2"/><circle cx="661" cy="713" r="3"/><circle cx="798" cy="774" r="4"/><circle cx="935" cy="835" r="2"/><circle cx="1072" cy="896" r="3"/><circle cx="1209" cy="957" r="4"/><circle cx="1346" cy="1018" r="2"/><circle cx="1483" cy="679" r="3"/><circle cx="60" cy="740" r="4"/><circle cx="197" cy="801" r="2"/><circle cx="334" cy="862" r="3"/><circle cx="471" cy="923" r="4"/><circle cx="608" cy="984" r="2"/><circle cx="745" cy="1045" r="3"/><circle cx="882" cy="706" r="4"/><circle cx="1019" cy="767" r="2"/><circle cx="1156" cy="828" r="3"/><circle cx="1293" cy="889" r="4"/>
  </g>
  <rect x="240" y="700" width="620" height="240" rx="42" fill="url(#massa1)"/>
  <g stroke="#cbbf9e" stroke-opacity="0.4" stroke-width="7" stroke-linecap="round">
    <path d="M430 706v228"/><path d="M620 706v228"/>
  </g>
  <g fill="url(#massa1)">
    <ellipse cx="1010" cy="820" rx="110" ry="86"/>
    <ellipse cx="1240" cy="800" rx="96" ry="76"/>
    <ellipse cx="1420" cy="850" rx="120" ry="92"/>
  </g>
  <g fill="#27231f" opacity="0.22">
    <ellipse cx="1010" cy="906" rx="112" ry="18"/>
    <ellipse cx="1240" cy="878" rx="98" ry="16"/>
    <ellipse cx="1420" cy="944" rx="122" ry="20"/>
  </g>
  <g transform="rotate(-14 980 560)">
    <rect x="900" y="470" width="180" height="130" rx="10" fill="#f1ebd5" opacity="0.55"/>
    <rect x="900" y="440" width="180" height="36" rx="14" fill="#27231f" opacity="0.55"/>
  </g>
  <rect width="1600" height="1100" filter="url(#poeira1)" fill="#f1ebd5" opacity="0.5"/>
  <text x="800" y="1054" text-anchor="middle"
        font-family="Montserrat, Helvetica, Arial, sans-serif"
        font-size="28" letter-spacing="8" fill="#f1ebd5" fill-opacity="0.65">FOTO EM BREVE</text>
</svg>
